<?xml version="1.0" standalone="no"?>
<!DOCTYPE svg PUBLIC "-//W3C//DTD SVG 20010904//EN"
 "http://www.w3.org/TR/2001/REC-SVG-20010904/DTD/svg10.dtd">
<svg version="1.0" xmlns="http://www.w3.org/2000/svg"
 width="100.000000pt" height="100.000000pt" viewBox="0 0 100.000000 100.000000"
 preserveAspectRatio="xMidYMid meet">

<g transform="translate(0.000000,100.000000) scale(0.100000,-0.100000)"
fill="#000000" stroke="none">
<path d="M0 500 l0 -500 500 0 500 0 0 500 0 500 -500 0 -500 0 0 -500z m980
0 l0 -480 -480 0 -480 0 0 480 0 480 480 0 480 0 0 -480z"/>
<path d="M134 952 c-6 -4 -19 -23 -29 -42 -10 -19 -25 -40 -34 -47 -14 -10
-14 -12 2 -19 15 -5 16 -9 5 -15 -16 -10 1 -44 23 -44 8 -1 13 -6 11 -13 -1
-7 7 -12 18 -12 23 0 24 4 9 32 -8 15 -8 19 0 14 6 -4 11 0 11 11 1 25 49 113
50 90 0 -10 5 -15 10 -12 6 4 10 -7 10 -24 0 -35 -7 -39 -26 -13 -12 16 -13
16 -14 -4 0 -26 27 -39 46 -23 24 20 15 50 -25 90 -40 40 -48 44 -67 31z"/>
<path d="M441 921 c-24 -21 -19 -28 19 -25 28 2 40 -11 40 -42 0 -19 -32 -67
-41 -61 -2 1 2 -4 10 -10 20 -17 56 -16 70 1 19 22 26 123 11 141 -18 21 -82
19 -109 -4z"/>
<path d="M808 889 c-69 -26 -89 -138 -33 -186 20 -18 34 -22 65 -18 86 11 120
42 120 110 0 47 -8 62 -43 80 -38 20 -79 25 -109 14z m110 -35 c17 -11 22 -24
22 -58 0 -37 -5 -48 -31 -70 -56 -47 -128 -27 -145 40 -10 40 7 77 46 97 37
19 69 16 108 -9z"/>
<path d="M845 816 c-29 -29 -32 -44 -10 -53 20 -7 55 24 55 48 0 30 -18 32
-45 5z"/>
<path d="M160 793 c0 -14 1 -24 3 -22 1 2 8 11 15 20 10 14 10 18 -3 23 -11 4
-15 -1 -15 -21z"/>
<path d="M625 790 c3 -5 11 -10 16 -10 6 0 7 5 4 10 -3 6 -11 10 -16 10 -6 0
-7 -4 -4 -10z"/>
<path d="M665 600 c-3 -5 -1 -10 4 -10 6 0 11 5 11 10 0 6 -2 10 -4 10 -3 0
-8 -4 -11 -10z"/>
<path d="M70 505 l0 -55 434 0 434 0 -1 53 -2 52 -432 3 -433 2 0 -55z m90 -1
c0 -19 -4 -34 -10 -34 -5 0 -10 10 -10 23 0 18 -2 19 -10 7 -9 -13 -11 -13
-21 0 -8 12 -9 10 -4 -7 5 -17 2 -23 -9 -23 -11 0 -16 10 -16 34 0 32 1 33 40
33 39 0 40 -1 40 -33z m485 27 c-16 -3 -30 -12 -29 -19 2 -27 4 -32 15 -32 6
0 9 7 5 15 -3 10 1 15 14 15 13 0 18 -6 17 -20 -1 -17 -7 -20 -31 -18 -63 6
-56 69 8 67 l31 -1 -30 -7z m-407 -28 c2 -8 -7 -13 -25 -14 l-28 -1 25 -8 25
-8 -27 -1 c-30 -1 -43 12 -34 35 7 18 57 15 64 -3z m90 -10 c2 -13 -1 -23 -7
-23 -6 0 -12 10 -12 23 l-2 22 -4 -22 c-2 -13 -11 -23 -19 -23 -8 0 -14 10
-15 23 -1 21 -1 21 -9 -3 l-8 -25 -1 28 c-1 27 1 28 37 25 30 -2 38 -7 40 -25z
m77 2 c0 -16 -7 -20 -30 -20 -24 0 -31 5 -33 23 -3 21 0 23 30 20 25 -2 33 -8
33 -23z m78 18 c-12 -2 -25 -13 -28 -24 -9 -27 -25 -24 -25 6 0 22 4 25 38 24
22 -1 28 -3 15 -6z m47 -8 c0 -8 7 -15 15 -15 8 0 15 7 15 15 0 8 5 15 11 15
6 0 9 -12 7 -27 -2 -23 -8 -28 -33 -30 -28 -2 -29 -1 -5 6 l25 8 -25 4 c-24 4
-43 39 -21 39 6 0 11 -7 11 -15z m218 -13 c3 -21 0 -23 -35 -20 -43 3 -51 21
-13 27 23 3 24 4 5 12 -16 7 -15 8 10 6 23 -1 31 -7 33 -25z m82 3 c0 -31 -19
-33 -21 -2 l-2 22 -4 -22 c-2 -13 -9 -23 -14 -23 -5 0 -9 10 -10 23 -1 21 -1
21 -9 -3 l-8 -25 -1 28 c-1 24 2 27 34 27 31 0 35 -3 35 -25z m88 8 c2 -8 -7
-13 -25 -14 l-28 -1 25 -8 c24 -8 24 -8 -7 -9 -34 -1 -48 11 -39 35 7 18 67
15 74 -3z"/>
<path d="M198 503 c7 -3 16 -2 19 1 4 3 -2 6 -13 5 -11 0 -14 -3 -6 -6z"/>
<path d="M360 495 c0 -8 7 -15 15 -15 8 0 15 7 15 15 0 8 -7 15 -15 15 -8 0
-15 -7 -15 -15z"/>
<path d="M132 372 c-45 -29 -64 -68 -55 -115 8 -39 24 -49 61 -36 31 11 72 63
72 90 0 24 -21 89 -28 89 -4 0 -26 -13 -50 -28z"/>
<path d="M540 378 c-1 -26 -30 -51 -65 -57 -35 -6 -35 -7 -20 -28 11 -16 26
-23 50 -23 44 0 70 35 60 79 -7 32 -25 52 -25 29z"/>
<path d="M812 314 c-18 -20 -8 -44 17 -44 22 0 46 34 36 50 -9 15 -38 11 -53
-6z"/>
<path d="M879 288 c-15 -47 4 -87 36 -74 22 8 19 53 -4 66 -19 10 -30 12 -32
8z"/>
<path d="M830 241 c0 -6 -6 -10 -12 -8 -20 3 -22 -49 -2 -57 24 -9 46 13 42
42 -3 25 -28 45 -28 23z"/>
<path d="M260 229 c-10 -6 0 -9 34 -9 54 0 57 4 11 13 -17 3 -37 2 -45 -4z"/>
<path d="M614 225 c-17 -13 -16 -14 14 -4 26 9 37 8 57 -5 14 -9 25 -12 25 -6
0 11 -41 30 -64 30 -7 0 -21 -7 -32 -15z"/>
<path d="M380 200 c20 -13 33 -13 25 0 -3 6 -14 10 -23 10 -15 0 -15 -2 -2
-10z"/>
<path d="M666 202 c-3 -6 1 -13 10 -16 23 -9 28 -2 10 13 -8 7 -17 8 -20 3z"/>
<path d="M221 187 c-13 -6 -30 -22 -38 -33 -13 -20 -11 -23 27 -43 l41 -21 24
26 c31 33 31 41 3 65 -27 22 -27 22 -57 6z"/>
<path d="M566 184 c-23 -23 -20 -30 4 -9 11 10 20 20 20 22 0 7 -9 2 -24 -13z"/>
<path d="M610 185 c7 -8 17 -15 22 -15 6 0 5 7 -2 15 -7 8 -17 15 -22 15 -6 0
-5 -7 2 -15z"/>
<path d="M707 157 c-11 -55 -82 -91 -130 -66 -20 11 -21 11 -8 -5 14 -17 53
-17 112 0 21 6 42 54 37 86 -3 18 -5 15 -11 -15z"/>
<path d="M590 161 c0 -7 -4 -9 -10 -6 -5 3 -10 2 -10 -4 0 -5 4 -12 9 -15 10
-6 25 24 16 32 -3 3 -5 0 -5 -7z"/>
<path d="M667 143 c-11 -11 -8 -23 6 -23 8 0 14 7 14 15 0 16 -9 19 -20 8z"/>
<path d="M306 118 c-23 -33 -20 -57 10 -70 23 -11 29 -10 45 11 23 28 24 45 3
65 -21 22 -40 20 -58 -6z"/>
<path d="M602 118 c2 -6 11 -13 19 -16 12 -3 12 -2 0 6 -11 8 -11 10 0 15 10
4 8 6 -4 6 -10 1 -17 -4 -15 -11z"/>
</g>
</svg>
